<svg width="44" height="44" viewBox="0 0 44 44" fill="none" xmlns="http://www.w3.org/2000/svg">
<path d="M44 22C44 9.84848 34.1515 0 22 0C9.84848 0 0 9.84848 0 22C0 32.9829 8.04375 42.0836 18.5625 43.7336V28.3594H12.9765V22H18.5625V17.1531C18.5625 11.6402 21.8454 8.59375 26.8726 8.59375C29.2789 8.59375 31.7969 9.02344 31.7969 9.02344V14.4375H29.0211C26.2883 14.4375 25.4375 16.1348 25.4375 17.875V22H31.539L30.5637 28.3594H25.4375V43.7336C35.9562 42.0836 44 32.9829 44 22Z" fill="#1877F2"/>
<path d="M30.5637 28.3594L31.539 22H25.4375V17.875C25.4375 16.1348 26.2883 14.4375 29.0211 14.4375H31.7969V9.02344C31.7969 9.02344 29.2789 8.59375 26.8726 8.59375C21.8454 8.59375 18.5625 11.6402 18.5625 17.1531V22H12.9765V28.3594H18.5625V43.7336C19.684 43.9098 20.8313 44 22 44C23.1688 44 24.3161 43.9098 25.4375 43.7336V28.3594H30.5637Z" fill="white"/>
</svg>
