<svg width="110" height="24" viewBox="0 0 110 24" fill="none" xmlns="http://www.w3.org/2000/svg">
<path d="M8.175 19.175C6.79167 19.175 5.55 18.8833 4.45 18.3C3.35 17.7167 2.49167 16.9083 1.875 15.875C1.25833 14.825 0.95 13.6417 0.95 12.325C0.95 11.0083 1.25833 9.83333 1.875 8.8C2.49167 7.76667 3.34167 6.95833 4.425 6.375C5.525 5.79167 6.775 5.5 8.175 5.5C9.49167 5.5 10.6417 5.76667 11.625 6.3C12.625 6.83333 13.375 7.6 13.875 8.6L11.475 10C11.0917 9.38333 10.6083 8.925 10.025 8.625C9.45833 8.30833 8.83333 8.15 8.15 8.15C6.98333 8.15 6.01667 8.53333 5.25 9.3C4.48333 10.05 4.1 11.0583 4.1 12.325C4.1 13.5917 4.475 14.6083 5.225 15.375C5.99167 16.125 6.96667 16.5 8.15 16.5C8.83333 16.5 9.45833 16.35 10.025 16.05C10.6083 15.7333 11.0917 15.2667 11.475 14.65L13.875 16.05C13.3583 17.05 12.6 17.825 11.6 18.375C10.6167 18.9083 9.475 19.175 8.175 19.175ZM24.0293 5.5C25.7126 5.5 27.0626 5.99167 28.0793 6.975C29.096 7.95833 29.6043 9.41667 29.6043 11.35V19H26.4793V11.75C26.4793 10.5833 26.2043 9.70833 25.6543 9.125C25.1043 8.525 24.321 8.225 23.3043 8.225C22.1543 8.225 21.246 8.575 20.5793 9.275C19.9126 9.95833 19.5793 10.95 19.5793 12.25V19H16.4543V0.449999H19.5793V7.2C20.096 6.65 20.7293 6.23333 21.4793 5.95C22.246 5.65 23.096 5.5 24.0293 5.5ZM38.6686 5.5C40.6352 5.5 42.1352 5.975 43.1686 6.925C44.2186 7.85833 44.7436 9.275 44.7436 11.175V19H41.7936V17.375C41.4102 17.9583 40.8602 18.4083 40.1436 18.725C39.4436 19.025 38.5936 19.175 37.5936 19.175C36.5936 19.175 35.7186 19.0083 34.9686 18.675C34.2186 18.325 33.6352 17.85 33.2186 17.25C32.8186 16.6333 32.6186 15.9417 32.6186 15.175C32.6186 13.975 33.0602 13.0167 33.9436 12.3C34.8436 11.5667 36.2519 11.2 38.1686 11.2H41.6186V11C41.6186 10.0667 41.3352 9.35 40.7686 8.85C40.2186 8.35 39.3936 8.1 38.2936 8.1C37.5436 8.1 36.8019 8.21667 36.0686 8.45C35.3519 8.68333 34.7436 9.00833 34.2436 9.425L33.0186 7.15C33.7186 6.61667 34.5602 6.20833 35.5436 5.925C36.5269 5.64167 37.5686 5.5 38.6686 5.5ZM38.2436 16.9C39.0269 16.9 39.7186 16.725 40.3186 16.375C40.9352 16.0083 41.3686 15.4917 41.6186 14.825V13.275H38.3936C36.5936 13.275 35.6936 13.8667 35.6936 15.05C35.6936 15.6167 35.9186 16.0667 36.3686 16.4C36.8186 16.7333 37.4436 16.9 38.2436 16.9ZM56.7791 18.275C56.4124 18.575 55.9624 18.8 55.4291 18.95C54.9124 19.1 54.3624 19.175 53.7791 19.175C52.3124 19.175 51.1791 18.7917 50.3791 18.025C49.5791 17.2583 49.1791 16.1417 49.1791 14.675V8.25H46.9791V5.75H49.1791V2.7H52.3041V5.75H55.8791V8.25H52.3041V14.6C52.3041 15.25 52.4624 15.75 52.7791 16.1C53.0958 16.4333 53.5541 16.6 54.1541 16.6C54.8541 16.6 55.4374 16.4167 55.9041 16.05L56.7791 18.275ZM64.3748 5.75C66.0915 5.75 67.4081 6.18333 68.3248 7.05C69.2415 7.9 69.6998 9.16667 69.6998 10.85V19H67.9998V16.95C67.5998 17.6333 67.0081 18.1667 66.2248 18.55C65.4581 18.9333 64.5415 19.125 63.4748 19.125C62.0081 19.125 60.8415 18.775 59.9748 18.075C59.1081 17.375 58.6748 16.45 58.6748 15.3C58.6748 14.1833 59.0748 13.2833 59.8748 12.6C60.6915 11.9167 61.9831 11.575 63.7498 11.575H67.9248V10.775C67.9248 9.64167 67.6081 8.78333 66.9748 8.2C66.3415 7.6 65.4165 7.3 64.1998 7.3C63.3665 7.3 62.5665 7.44167 61.7998 7.725C61.0331 7.99167 60.3748 8.36667 59.8248 8.85L59.0248 7.525C59.6915 6.95833 60.4915 6.525 61.4248 6.225C62.3581 5.90833 63.3415 5.75 64.3748 5.75ZM63.7498 17.725C64.7498 17.725 65.6081 17.5 66.3248 17.05C67.0415 16.5833 67.5748 15.9167 67.9248 15.05V12.9H63.7998C61.5498 12.9 60.4248 13.6833 60.4248 15.25C60.4248 16.0167 60.7165 16.625 61.2998 17.075C61.8831 17.5083 62.6998 17.725 63.7498 17.725ZM81.2959 5.75C82.5292 5.75 83.6459 6.03333 84.6459 6.6C85.6459 7.15 86.4292 7.93333 86.9959 8.95C87.5626 9.96667 87.8459 11.125 87.8459 12.425C87.8459 13.7417 87.5626 14.9083 86.9959 15.925C86.4292 16.9417 85.6459 17.7333 84.6459 18.3C83.6626 18.85 82.5459 19.125 81.2959 19.125C80.2292 19.125 79.2626 18.9083 78.3959 18.475C77.5459 18.025 76.8459 17.375 76.2959 16.525V23.85H74.5209V5.85H76.2209V8.45C76.7542 7.58333 77.4542 6.91667 78.3209 6.45C79.2042 5.98333 80.1959 5.75 81.2959 5.75ZM81.1709 17.55C82.0876 17.55 82.9209 17.3417 83.6709 16.925C84.4209 16.4917 85.0042 15.8833 85.4209 15.1C85.8542 14.3167 86.0709 13.425 86.0709 12.425C86.0709 11.425 85.8542 10.5417 85.4209 9.775C85.0042 8.99167 84.4209 8.38333 83.6709 7.95C82.9209 7.51667 82.0876 7.3 81.1709 7.3C80.2376 7.3 79.3959 7.51667 78.6459 7.95C77.9126 8.38333 77.3292 8.99167 76.8959 9.775C76.4792 10.5417 76.2709 11.425 76.2709 12.425C76.2709 13.425 76.4792 14.3167 76.8959 15.1C77.3292 15.8833 77.9126 16.4917 78.6459 16.925C79.3959 17.3417 80.2376 17.55 81.1709 17.55ZM98.2393 5.75C99.4726 5.75 100.589 6.03333 101.589 6.6C102.589 7.15 103.373 7.93333 103.939 8.95C104.506 9.96667 104.789 11.125 104.789 12.425C104.789 13.7417 104.506 14.9083 103.939 15.925C103.373 16.9417 102.589 17.7333 101.589 18.3C100.606 18.85 99.4893 19.125 98.2393 19.125C97.1726 19.125 96.2059 18.9083 95.3393 18.475C94.4893 18.025 93.7893 17.375 93.2393 16.525V23.85H91.4643V5.85H93.1643V8.45C93.6976 7.58333 94.3976 6.91667 95.2643 6.45C96.1476 5.98333 97.1393 5.75 98.2393 5.75ZM98.1143 17.55C99.0309 17.55 99.8643 17.3417 100.614 16.925C101.364 16.4917 101.948 15.8833 102.364 15.1C102.798 14.3167 103.014 13.425 103.014 12.425C103.014 11.425 102.798 10.5417 102.364 9.775C101.948 8.99167 101.364 8.38333 100.614 7.95C99.8643 7.51667 99.0309 7.3 98.1143 7.3C97.1809 7.3 96.3393 7.51667 95.5893 7.95C94.8559 8.38333 94.2726 8.99167 93.8393 9.775C93.4226 10.5417 93.2143 11.425 93.2143 12.425C93.2143 13.425 93.4226 14.3167 93.8393 15.1C94.2726 15.8833 94.8559 16.4917 95.5893 16.925C96.3393 17.3417 97.1809 17.55 98.1143 17.55ZM108.216 19.125C107.85 19.125 107.533 18.9917 107.266 18.725C107.016 18.4583 106.891 18.1333 106.891 17.75C106.891 17.3667 107.016 17.05 107.266 16.8C107.533 16.5333 107.85 16.4 108.216 16.4C108.583 16.4 108.9 16.5333 109.166 16.8C109.433 17.05 109.566 17.3667 109.566 17.75C109.566 18.1333 109.433 18.4583 109.166 18.725C108.9 18.9917 108.583 19.125 108.216 19.125Z" fill="white"/>
</svg>
