<svg width="192" height="25" viewBox="0 0 192 25" fill="none" xmlns="http://www.w3.org/2000/svg">
<g clip-path="url(#clip0_216_3)">
<path d="M24.718 9.50654C24.5558 9.00471 24.1107 8.6483 23.5841 8.60084L16.4311 7.95134L13.6027 1.33105C13.3941 0.845863 12.9192 0.531799 12.3914 0.531799C11.8637 0.531799 11.3887 0.845863 11.1802 1.33218L8.35171 7.95134L1.19764 8.60084C0.671991 8.64943 0.228029 9.00471 0.0648517 9.50654C-0.0983253 10.0084 0.0523723 10.5588 0.45001 10.9057L5.85679 15.6475L4.26245 22.6706C4.14579 23.1869 4.34622 23.7207 4.77467 24.0304C5.00497 24.1968 5.27442 24.2815 5.54613 24.2815C5.7804 24.2815 6.01278 24.2184 6.22133 24.0936L12.3914 20.4059L18.5593 24.0936C19.0106 24.3651 19.5795 24.3403 20.0071 24.0304C20.4357 23.7198 20.6359 23.1858 20.5193 22.6706L18.9249 15.6475L24.3317 10.9067C24.7294 10.5588 24.8812 10.0093 24.718 9.50654V9.50654Z" fill="#FFA800"/>
</g>
<g clip-path="url(#clip1_216_3)">
<path d="M191.848 9.50654C191.686 9.00471 191.241 8.6483 190.714 8.60084L183.562 7.95134L180.733 1.33105C180.524 0.845863 180.05 0.531799 179.522 0.531799C178.994 0.531799 178.519 0.845863 178.311 1.33218L175.482 7.95134L168.328 8.60084C167.802 8.64943 167.358 9.00471 167.195 9.50654C167.032 10.0084 167.183 10.5588 167.58 10.9057L172.987 15.6475L171.393 22.6706C171.276 23.1869 171.477 23.7207 171.905 24.0304C172.135 24.1968 172.405 24.2815 172.676 24.2815C172.911 24.2815 173.143 24.2184 173.352 24.0936L179.522 20.4059L185.69 24.0936C186.141 24.3651 186.71 24.3403 187.137 24.0304C187.566 23.7198 187.766 23.1858 187.65 22.6706L186.055 15.6475L191.462 10.9067C191.86 10.5588 192.012 10.0093 191.848 9.50654V9.50654Z" fill="#FFA800"/>
</g>
<g clip-path="url(#clip2_216_3)">
<path d="M66.5006 9.50654C66.3384 9.00471 65.8933 8.6483 65.3667 8.60084L58.2137 7.95134L55.3853 1.33105C55.1767 0.845863 54.7017 0.531799 54.174 0.531799C53.6463 0.531799 53.1713 0.845863 52.9628 1.33218L50.1343 7.95134L42.9802 8.60084C42.4546 8.64943 42.0106 9.00471 41.8474 9.50654C41.6843 10.0084 41.835 10.5588 42.2326 10.9057L47.6394 15.6475L46.045 22.6706C45.9284 23.1869 46.1288 23.7207 46.5573 24.0304C46.7876 24.1968 47.057 24.2815 47.3287 24.2815C47.563 24.2815 47.7954 24.2184 48.0039 24.0936L54.174 20.4059L60.3419 24.0936C60.7932 24.3651 61.3621 24.3403 61.7896 24.0304C62.2183 23.7198 62.4185 23.1858 62.3019 22.6706L60.7075 15.6475L66.1143 10.9067C66.5119 10.5588 66.6638 10.0093 66.5006 9.50654V9.50654Z" fill="#FFA800"/>
</g>
<g clip-path="url(#clip3_216_3)">
<path d="M108.283 9.50654C108.121 9.00471 107.676 8.6483 107.149 8.60084L99.9963 7.95134L97.1679 1.33105C96.9593 0.845863 96.4843 0.531799 95.9566 0.531799C95.4289 0.531799 94.9539 0.845863 94.7454 1.33218L91.9169 7.95134L84.7628 8.60084C84.2372 8.64943 83.7932 9.00471 83.63 9.50654C83.4669 10.0084 83.6176 10.5588 84.0152 10.9057L89.422 15.6475L87.8276 22.6706C87.711 23.1869 87.9114 23.7207 88.3399 24.0304C88.5702 24.1968 88.8396 24.2815 89.1113 24.2815C89.3456 24.2815 89.578 24.2184 89.7865 24.0936L95.9566 20.4059L102.124 24.0936C102.576 24.3651 103.145 24.3403 103.572 24.0304C104.001 23.7198 104.201 23.1858 104.084 22.6706L102.49 15.6475L107.897 10.9067C108.295 10.5588 108.446 10.0093 108.283 9.50654V9.50654Z" fill="#FFA800"/>
</g>
<g clip-path="url(#clip4_216_3)">
<path d="M150.066 9.50654C149.904 9.00471 149.458 8.6483 148.932 8.60084L141.779 7.95134L138.95 1.33105C138.742 0.845863 138.267 0.531799 137.739 0.531799C137.211 0.531799 136.737 0.845863 136.528 1.33218L133.699 7.95134L126.545 8.60084C126.02 8.64943 125.576 9.00471 125.413 9.50654C125.249 10.0084 125.4 10.5588 125.798 10.9057L131.205 15.6475L129.61 22.6706C129.494 23.1869 129.694 23.7207 130.122 24.0304C130.353 24.1968 130.622 24.2815 130.894 24.2815C131.128 24.2815 131.361 24.2184 131.569 24.0936L137.739 20.4059L143.907 24.0936C144.358 24.3651 144.927 24.3403 145.355 24.0304C145.783 23.7198 145.984 23.1858 145.867 22.6706L144.273 15.6475L149.679 10.9067C150.077 10.5588 150.229 10.0093 150.066 9.50654V9.50654Z" fill="#FFA800"/>
</g>
<defs>
<clipPath id="clip0_216_3">
<rect width="24.7826" height="24.7826" fill="white"/>
</clipPath>
<clipPath id="clip1_216_3">
<rect width="24.7826" height="24.7826" fill="white" transform="translate(167.13)"/>
</clipPath>
<clipPath id="clip2_216_3">
<rect width="24.7826" height="24.7826" fill="white" transform="translate(41.7826)"/>
</clipPath>
<clipPath id="clip3_216_3">
<rect width="24.7826" height="24.7826" fill="white" transform="translate(83.5652)"/>
</clipPath>
<clipPath id="clip4_216_3">
<rect width="24.7826" height="24.7826" fill="white" transform="translate(125.348)"/>
</clipPath>
</defs>
</svg>
