<svg width="44" height="44" viewBox="0 0 44 44" fill="none" xmlns="http://www.w3.org/2000/svg">
<path d="M0 22C0 9.84974 9.84974 0 22 0C34.1503 0 44 9.84974 44 22C44 34.1503 34.1503 44 22 44C9.84974 44 0 34.1503 0 22Z" fill="#55ACEE"/>
<path d="M21.3411 17.8818L21.3873 18.6431L20.6178 18.5499C17.8171 18.1925 15.3703 16.9808 13.2929 14.9456L12.2772 13.9358L12.0156 14.6815C11.4617 16.3438 11.8156 18.0993 12.9697 19.28C13.5853 19.9325 13.4468 20.0258 12.385 19.6374C12.0156 19.5131 11.6925 19.4199 11.6617 19.4665C11.554 19.5752 11.9233 20.989 12.2157 21.5483C12.6158 22.325 13.4314 23.0863 14.3239 23.5368L15.078 23.8941L14.1854 23.9097C13.3237 23.9097 13.2929 23.9252 13.3852 24.2515C13.693 25.2613 14.9087 26.3333 16.2629 26.7993L17.217 27.1256L16.386 27.6227C15.1549 28.3374 13.7084 28.7413 12.2619 28.7724C11.5694 28.7879 11 28.85 11 28.8966C11 29.052 12.8774 29.922 13.97 30.2638C17.2477 31.2736 21.141 30.8386 24.0649 29.1141C26.1423 27.8868 28.2198 25.4477 29.1893 23.0863C29.7125 21.8279 30.2357 19.5286 30.2357 18.4256C30.2357 17.7109 30.2818 17.6177 31.1436 16.7633C31.6514 16.2661 32.1285 15.7224 32.2208 15.567C32.3747 15.2718 32.3593 15.2718 31.5745 15.5359C30.2665 16.002 30.0818 15.9399 30.7281 15.2408C31.2052 14.7436 31.7745 13.8425 31.7745 13.5784C31.7745 13.5318 31.5437 13.6095 31.2821 13.7493C31.0051 13.9047 30.3896 14.1377 29.9279 14.2775L29.0969 14.5416L28.3429 14.029C27.9274 13.7493 27.3426 13.4386 27.0349 13.3454C26.25 13.1279 25.0497 13.159 24.3419 13.4075C22.4183 14.1066 21.2026 15.9088 21.3411 17.8818Z" fill="white"/>
</svg>
