<svg width="44" height="44" viewBox="0 0 44 44" fill="none" xmlns="http://www.w3.org/2000/svg">
<path d="M0 22C0 9.84974 9.84974 0 22 0C34.1503 0 44 9.84974 44 22C44 34.1503 34.1503 44 22 44C9.84974 44 0 34.1503 0 22Z" fill="#FF0000"/>
<path d="M33.2429 16.5671C32.9731 15.5304 32.1779 14.714 31.1681 14.4369C29.3383 13.9333 22 13.9333 22 13.9333C22 13.9333 14.6617 13.9333 12.8317 14.4369C11.822 14.714 11.0268 15.5304 10.7569 16.5671C10.2667 18.4461 10.2667 22.3667 10.2667 22.3667C10.2667 22.3667 10.2667 26.2871 10.7569 28.1662C11.0268 29.203 11.822 30.0194 12.8317 30.2966C14.6617 30.8 22 30.8 22 30.8C22 30.8 29.3383 30.8 31.1681 30.2966C32.1779 30.0194 32.9731 29.203 33.2429 28.1662C33.7333 26.2871 33.7333 22.3667 33.7333 22.3667C33.7333 22.3667 33.7333 18.4461 33.2429 16.5671Z" fill="white"/>
<path d="M19.8 26.4V19.0667L25.6667 22.7335L19.8 26.4Z" fill="#FF0000"/>
</svg>
